# xmcd
#
# Track frame offsets:
#	150
#	14315
#	29740
#	40130
#	52927
#	64657
#	73122
#	82050
#	93765
#	98725
#
# Disc length: 1442 seconds
#
# Revision: 0
# Processed by: cddbd v1.5.1PL2 Copyright (c) Steve Scherf et al.
# Submitted via: dBpowerAMP V4.0
#
DISCID=7c05a00a
DTITLE=Various Artist - Classic Country Christmas
DYEAR=2003
DGENRE=Christmas
TTITLE0=Hark! the Hearald Angels Sing - Marty Robbins
TTITLE1=What Child Is This - Jody Miller
TTITLE2=Away In A Manager - Tanya Tucker
TTITLE3=O Little Town Of Bethlehem - George Jones
TTITLE4=It Came Upon A Midnight Clear - Vikki Carr
TTITLE5=Joy To The World - George Jones
TTITLE6=O Holy Night - Charlie Rich
TTITLE7=O Come, All Ye Faithful - Jim Nabors
TTITLE8=Silent Night - Sonny James
TTITLE9=Jingle Bells - Patti Page
EXTD=christmas
EXTT0=
EXTT1=
EXTT2=
EXTT3=
EXTT4=
EXTT5=
EXTT6=
EXTT7=
EXTT8=
EXTT9=
PLAYORDER=
